<svg xmlns="http://www.w3.org/2000/svg" viewBox="0 0 48 48">
  <path d="M38.5 39h-29C8.1 39 7 40.1 7 41.5v1C7 43.9 8.1 45 9.5 45h29c1.4 0 2.5-1.1 2.5-2.5v-1C41 40.1 39.9 39 38.5 39zM35.5 32h-23C10.6 32 9 33.6 9 35.5V37h30v-1.5C39 33.6 37.4 32 35.5 32zM10.5 16c1.9 0 3.5-.9 3.5-2-1.1 0-2-.9-2-2s.9-2 2-2c.5 0 .9.2 1.2.4C16.1 11 17 12.1 17 14c0 2.4-2.1 4.4-5 4.9V30h6V19.5c0-.8.7-1.5 1.5-1.5s1.5.7 1.5 1.5V30h6V19.5c0-.8.7-1.5 1.5-1.5s1.5.7 1.5 1.5V30h6V18.9c-2.9-.5-5-2.5-5-4.9 0-1.9.9-3 1.8-3.6.3-.3.8-.4 1.2-.4 1.1 0 2 .9 2 2s-.9 2-2 2c0 1.1 1.6 2 3.5 2 3.1 0 5.4-2.2 5.5-5.3C42.8 7 39.8 4 36 4H12c-3.8 0-6.8 3-7 6.7C5.1 13.8 7.4 16 10.5 16z" fill="#EFEFDE" />
</svg>